<svg fill="none" height="24" viewBox="0 0 24 24" width="24" xmlns="http://www.w3.org/2000/svg"><path d="m0 0h24v24h-24z" fill="#000" fill-opacity=".01"/><path clip-rule="evenodd" d="m17.7351 14.8474c.7022-1.1754 1.1059-2.5503 1.1059-4.0195 0-4.33069-3.5068-7.84142-7.8327-7.84142-4.32582 0-7.83261 3.51073-7.83261 7.84142 0 4.3307 3.50679 7.8414 7.83261 7.8414 1.5257 0 2.9495-.4366 4.1535-1.192l2.6899 2.7855c.7055.7306 1.8697.7509 2.6003.0454s.7509-1.8697.0454-2.6003zm-6.7268.5547c2.5234 0 4.5691-2.0479 4.5691-4.5742 0-2.52623-2.0457-4.57416-4.5691-4.57416-2.52339 0-4.56901 2.04793-4.56901 4.57416 0 2.5263 2.04562 4.5742 4.56901 4.5742z" fill="#fff" fill-rule="evenodd"/></svg>