<svg width="32" height="32" viewBox="0 0 32 32" fill="none" xmlns="http://www.w3.org/2000/svg">
<path fill-rule="evenodd" clip-rule="evenodd" d="M26.6667 16C26.6667 21.891 21.8911 26.6667 16 26.6667C10.109 26.6667 5.33337 21.891 5.33337 16C5.33337 10.109 10.109 5.33333 16 5.33333C21.8911 5.33333 26.6667 10.109 26.6667 16ZM20 12.2849C20 12.6829 19.9562 13.0327 19.8686 13.3342C19.781 13.6358 19.6551 13.9132 19.4908 14.1664C19.3375 14.4197 19.1458 14.6609 18.9159 14.8901C18.6968 15.1072 18.4449 15.3363 18.1602 15.5776C17.985 15.7344 17.8371 15.8731 17.7167 15.9937C17.6072 16.1143 17.5195 16.2409 17.4538 16.3736C17.3881 16.4942 17.3389 16.6269 17.306 16.7716C17.2841 16.9043 17.2731 17.0671 17.2731 17.2601C17.2731 17.5198 17.0625 17.7304 16.8028 17.7304H15.2105C14.9344 17.7304 14.7105 17.5066 14.7105 17.2304V17.043C14.7105 16.7294 14.7379 16.452 14.7926 16.2108C14.8474 15.9575 14.9295 15.7283 15.0391 15.5233C15.1486 15.3183 15.28 15.1192 15.4333 14.9263C15.5976 14.7333 15.7892 14.5343 16.0083 14.3293L16.5503 13.7684C16.7365 13.5875 16.8953 13.4006 17.0267 13.2076C17.1582 13.0026 17.2239 12.7613 17.2239 12.4839C17.2239 12.098 17.1143 11.7904 16.8953 11.5613C16.6872 11.3321 16.397 11.2175 16.0247 11.2175C15.5647 11.2175 15.2198 11.3924 14.9898 11.7422C14.8978 11.8772 14.8225 12.02 14.7638 12.1705C14.6166 12.5478 14.2709 12.8599 13.8687 12.8125L12.9768 12.7075C12.4347 12.6437 12.0316 12.1526 12.1731 11.6254C12.245 11.3575 12.3352 11.1069 12.4436 10.8738C12.6845 10.3793 12.9911 9.96924 13.3635 9.6436C13.7358 9.31795 14.1575 9.07673 14.6284 8.91994C15.0993 8.75109 15.5976 8.66666 16.1232 8.66666C16.6161 8.66666 17.0924 8.73903 17.5524 8.88376C18.0233 9.01643 18.4395 9.23352 18.8009 9.53505C19.1623 9.82451 19.4525 10.1984 19.6715 10.6567C19.8905 11.115 20 11.6578 20 12.2849ZM16 23.3333C17.1046 23.3333 18 22.4379 18 21.3333C18 20.2288 17.1046 19.3333 16 19.3333C14.8955 19.3333 14 20.2288 14 21.3333C14 22.4379 14.8955 23.3333 16 23.3333Z" fill="#B9C0C7"/>
</svg>
