<svg xmlns="http://www.w3.org/2000/svg" width="16" height="16" fill="#3A3E41"><path transform="rotate(-90 8 8)" d="M7.267 4.188V2.776C7.267 2.347 7.595 2 8 2c.405 0 .733.347.733.776v1.412l.85-.91a.705.705 0 0 1 1.037-.005c.288.302.29.792.005 1.097L8.527 6.612a.709.709 0 0 1-1.054 0L5.375 4.37a.808.808 0 0 1 .005-1.097.705.705 0 0 1 1.037.006l.85.909ZM12.286 8.75H3.714C3.32 8.75 3 8.415 3 8s.32-.75.714-.75h8.572c.395 0 .714.335.714.75s-.32.75-.714.75ZM8.733 13.225v-1.413l.85.91a.706.706 0 0 0 1.037.005.808.808 0 0 0 .005-1.097L8.527 9.387a.709.709 0 0 0-1.054 0L5.375 11.63a.807.807 0 0 0 .005 1.096c.287.302.752.3 1.037-.005l.85-.909v1.413c0 .428.328.775.733.775.405 0 .733-.347.733-.775Z"/><script/></svg>
